<mxfile host="app.diagrams.net" agent="Mozilla/5.0 (Windows NT 10.0; Win64; x64) AppleWebKit/537.36 (KHTML, like Gecko) Chrome/138.0.0.0 Safari/537.36" version="28.0.7">
  <diagram name="Page-1" id="U3b2GhnmvktdcThRNdnL">
    <mxGraphModel grid="1" page="1" gridSize="10" guides="1" tooltips="1" connect="1" arrows="1" fold="1" pageScale="1" pageWidth="850" pageHeight="1100" math="0" shadow="0">
      <root>
        <mxCell id="0" />
        <mxCell id="1" parent="0" />
        <mxCell id="RFkGbob6kJECIms63f6e-1" value="Start" style="ellipse;fillColor=#d5e8d4;strokeColor=#82b366;" vertex="1" parent="1">
          <mxGeometry x="720" y="380" width="160" height="60" as="geometry" />
        </mxCell>
        <mxCell id="RFkGbob6kJECIms63f6e-2" value="Enter username and password and account attempts" style="rounded=0;fillColor=#dae8fc;strokeColor=#6c8ebf;" vertex="1" parent="1">
          <mxGeometry x="720" y="480" width="160" height="60" as="geometry" />
        </mxCell>
        <mxCell id="RFkGbob6kJECIms63f6e-3" value="" style="edgeStyle=orthogonalEdgeStyle;rounded=0;orthogonalLoop=1;jettySize=auto;html=1;" edge="1" parent="1" source="RFkGbob6kJECIms63f6e-4" target="RFkGbob6kJECIms63f6e-5">
          <mxGeometry relative="1" as="geometry" />
        </mxCell>
        <mxCell id="RFkGbob6kJECIms63f6e-4" value="Is username valid?" style="rhombus;fillColor=#ffffff;strokeColor=#000000;" vertex="1" parent="1">
          <mxGeometry x="720" y="580" width="160" height="60" as="geometry" />
        </mxCell>
        <mxCell id="RFkGbob6kJECIms63f6e-5" value="Is password correct?" style="rhombus;fillColor=#ffffff;strokeColor=#000000;" vertex="1" parent="1">
          <mxGeometry x="720" y="680" width="160" height="60" as="geometry" />
        </mxCell>
        <mxCell id="RFkGbob6kJECIms63f6e-6" value="Show error message" style="rounded=0;fillColor=#dae8fc;strokeColor=#6c8ebf;" vertex="1" parent="1">
          <mxGeometry x="350" y="870" width="160" height="60" as="geometry" />
        </mxCell>
        <mxCell id="RFkGbob6kJECIms63f6e-7" value="Have 3 attempts been exceeded?" style="rhombus;fillColor=#ffffff;strokeColor=#000000;" vertex="1" parent="1">
          <mxGeometry x="720" y="776" width="160" height="60" as="geometry" />
        </mxCell>
        <mxCell id="RFkGbob6kJECIms63f6e-8" value="Lock account" style="rounded=0;fillColor=#dae8fc;strokeColor=#6c8ebf;" vertex="1" parent="1">
          <mxGeometry x="720" y="875" width="160" height="60" as="geometry" />
        </mxCell>
        <mxCell id="RFkGbob6kJECIms63f6e-9" value="End" style="ellipse;fillColor=#d5e8d4;strokeColor=#82b366;" vertex="1" parent="1">
          <mxGeometry x="720" y="980" width="160" height="60" as="geometry" />
        </mxCell>
        <mxCell id="RFkGbob6kJECIms63f6e-10" value="" style="endArrow=classic;html=1;rounded=0;" edge="1" parent="1" target="RFkGbob6kJECIms63f6e-2">
          <mxGeometry width="50" height="50" relative="1" as="geometry">
            <mxPoint x="800" y="440" as="sourcePoint" />
            <mxPoint x="850" y="390" as="targetPoint" />
          </mxGeometry>
        </mxCell>
        <mxCell id="RFkGbob6kJECIms63f6e-11" value="" style="endArrow=classic;html=1;rounded=0;" edge="1" parent="1">
          <mxGeometry width="50" height="50" relative="1" as="geometry">
            <mxPoint x="801" y="540" as="sourcePoint" />
            <mxPoint x="801" y="580" as="targetPoint" />
          </mxGeometry>
        </mxCell>
        <mxCell id="RFkGbob6kJECIms63f6e-12" value="" style="endArrow=classic;html=1;rounded=0;" edge="1" parent="1">
          <mxGeometry width="50" height="50" relative="1" as="geometry">
            <mxPoint x="800" y="640" as="sourcePoint" />
            <mxPoint x="800" y="680" as="targetPoint" />
          </mxGeometry>
        </mxCell>
        <mxCell id="RFkGbob6kJECIms63f6e-13" value="" style="endArrow=classic;html=1;rounded=0;" edge="1" parent="1">
          <mxGeometry width="50" height="50" relative="1" as="geometry">
            <mxPoint x="800" y="836" as="sourcePoint" />
            <mxPoint x="800" y="876" as="targetPoint" />
          </mxGeometry>
        </mxCell>
        <mxCell id="RFkGbob6kJECIms63f6e-14" value="Yes" style="edgeLabel;html=1;align=center;verticalAlign=middle;resizable=0;points=[];" connectable="0" vertex="1" parent="RFkGbob6kJECIms63f6e-13">
          <mxGeometry x="-0.25" y="13" relative="1" as="geometry">
            <mxPoint as="offset" />
          </mxGeometry>
        </mxCell>
        <mxCell id="RFkGbob6kJECIms63f6e-15" value="" style="endArrow=classic;html=1;rounded=0;" edge="1" parent="1">
          <mxGeometry width="50" height="50" relative="1" as="geometry">
            <mxPoint x="800" y="740" as="sourcePoint" />
            <mxPoint x="800" y="780" as="targetPoint" />
          </mxGeometry>
        </mxCell>
        <mxCell id="RFkGbob6kJECIms63f6e-16" value="" style="endArrow=classic;html=1;rounded=0;entryX=0.5;entryY=0;entryDx=0;entryDy=0;" edge="1" parent="1" target="RFkGbob6kJECIms63f6e-9">
          <mxGeometry width="50" height="50" relative="1" as="geometry">
            <mxPoint x="798" y="935" as="sourcePoint" />
            <mxPoint x="803.9666742699615" y="975.038151719714" as="targetPoint" />
          </mxGeometry>
        </mxCell>
        <mxCell id="RFkGbob6kJECIms63f6e-17" value="" style="endArrow=classic;html=1;rounded=0;entryX=0;entryY=0.5;entryDx=0;entryDy=0;" edge="1" parent="1">
          <mxGeometry width="50" height="50" relative="1" as="geometry">
            <mxPoint x="880" y="610" as="sourcePoint" />
            <mxPoint x="970" y="610" as="targetPoint" />
          </mxGeometry>
        </mxCell>
        <mxCell id="RFkGbob6kJECIms63f6e-18" value="No" style="text;html=1;align=center;verticalAlign=middle;resizable=0;points=[];autosize=1;strokeColor=none;fillColor=none;" vertex="1" parent="1">
          <mxGeometry x="890" y="578" width="40" height="30" as="geometry" />
        </mxCell>
        <mxCell id="RFkGbob6kJECIms63f6e-19" value="Yes" style="text;html=1;align=center;verticalAlign=middle;resizable=0;points=[];autosize=1;strokeColor=none;fillColor=none;" vertex="1" parent="1">
          <mxGeometry x="800" y="648" width="40" height="30" as="geometry" />
        </mxCell>
        <mxCell id="RFkGbob6kJECIms63f6e-20" value="No" style="text;html=1;align=center;verticalAlign=middle;resizable=0;points=[];autosize=1;strokeColor=none;fillColor=none;" vertex="1" parent="1">
          <mxGeometry x="890" y="776" width="40" height="30" as="geometry" />
        </mxCell>
        <mxCell id="RFkGbob6kJECIms63f6e-21" value="&#xa;&lt;span style=&quot;color: rgb(0, 0, 0); font-family: Helvetica; font-size: 12px; font-style: normal; font-variant-ligatures: normal; font-variant-caps: normal; font-weight: 400; letter-spacing: normal; orphans: 2; text-align: center; text-indent: 0px; text-transform: none; widows: 2; word-spacing: 0px; -webkit-text-stroke-width: 0px; white-space: nowrap; background-color: rgb(236, 236, 236); text-decoration-thickness: initial; text-decoration-style: initial; text-decoration-color: initial; display: inline !important; float: none;&quot;&gt;Login successful&lt;/span&gt;&#xa;&#xa;" style="shape=parallelogram;perimeter=parallelogramPerimeter;whiteSpace=wrap;html=1;fixedSize=1;" vertex="1" parent="1">
          <mxGeometry x="910" y="680" width="120" height="60" as="geometry" />
        </mxCell>
        <mxCell id="RFkGbob6kJECIms63f6e-22" value="&#xa;&lt;span style=&quot;color: rgb(0, 0, 0); font-family: Helvetica; font-size: 12px; font-style: normal; font-variant-ligatures: normal; font-variant-caps: normal; font-weight: 400; letter-spacing: normal; orphans: 2; text-align: center; text-indent: 0px; text-transform: none; widows: 2; word-spacing: 0px; -webkit-text-stroke-width: 0px; white-space: normal; background-color: rgb(236, 236, 236); text-decoration-thickness: initial; text-decoration-style: initial; text-decoration-color: initial; display: inline !important; float: none;&quot;&gt;Increment&amp;nbsp;&lt;/span&gt;&lt;div style=&quot;forced-color-adjust: none; color: rgb(0, 0, 0); font-family: Helvetica; font-size: 12px; font-style: normal; font-variant-ligatures: normal; font-variant-caps: normal; font-weight: 400; letter-spacing: normal; orphans: 2; text-align: center; text-indent: 0px; text-transform: none; widows: 2; word-spacing: 0px; -webkit-text-stroke-width: 0px; white-space: normal; background-color: rgb(236, 236, 236); text-decoration-thickness: initial; text-decoration-style: initial; text-decoration-color: initial;&quot;&gt;attempt&lt;/div&gt;&#xa;&#xa;" style="rounded=0;whiteSpace=wrap;html=1;" vertex="1" parent="1">
          <mxGeometry x="970" y="580" width="120" height="60" as="geometry" />
        </mxCell>
        <mxCell id="RFkGbob6kJECIms63f6e-23" value="No" style="text;html=1;align=center;verticalAlign=middle;resizable=0;points=[];autosize=1;strokeColor=none;fillColor=none;" vertex="1" parent="1">
          <mxGeometry x="800" y="740" width="40" height="30" as="geometry" />
        </mxCell>
        <mxCell id="RFkGbob6kJECIms63f6e-24" value="" style="edgeStyle=elbowEdgeStyle;elbow=horizontal;endArrow=classic;html=1;curved=0;rounded=0;endSize=8;startSize=8;exitX=1;exitY=0.5;exitDx=0;exitDy=0;" edge="1" parent="1" source="RFkGbob6kJECIms63f6e-22">
          <mxGeometry width="50" height="50" relative="1" as="geometry">
            <mxPoint x="1100" y="608" as="sourcePoint" />
            <mxPoint x="800" y="460" as="targetPoint" />
            <Array as="points">
              <mxPoint x="1125" y="568" />
            </Array>
          </mxGeometry>
        </mxCell>
        <mxCell id="RFkGbob6kJECIms63f6e-25" value="" style="endArrow=classic;html=1;rounded=0;entryX=0;entryY=0.25;entryDx=0;entryDy=0;" edge="1" parent="1" target="RFkGbob6kJECIms63f6e-21">
          <mxGeometry width="50" height="50" relative="1" as="geometry">
            <mxPoint x="880" y="710" as="sourcePoint" />
            <mxPoint x="930" y="660" as="targetPoint" />
          </mxGeometry>
        </mxCell>
        <mxCell id="RFkGbob6kJECIms63f6e-26" value="Yes" style="text;html=1;align=center;verticalAlign=middle;resizable=0;points=[];autosize=1;strokeColor=none;fillColor=none;" vertex="1" parent="1">
          <mxGeometry x="870" y="678" width="40" height="30" as="geometry" />
        </mxCell>
        <mxCell id="RFkGbob6kJECIms63f6e-27" value="" style="endArrow=classic;html=1;rounded=0;entryX=1;entryY=0.5;entryDx=0;entryDy=0;" edge="1" parent="1" target="RFkGbob6kJECIms63f6e-6">
          <mxGeometry width="50" height="50" relative="1" as="geometry">
            <mxPoint x="720" y="900" as="sourcePoint" />
            <mxPoint x="510" y="905" as="targetPoint" />
          </mxGeometry>
        </mxCell>
        <mxCell id="RFkGbob6kJECIms63f6e-28" value="" style="endArrow=classic;html=1;rounded=0;entryX=0.724;entryY=1.241;entryDx=0;entryDy=0;entryPerimeter=0;" edge="1" parent="1">
          <mxGeometry width="50" height="50" relative="1" as="geometry">
            <mxPoint x="870" y="804" as="sourcePoint" />
            <mxPoint x="918.96" y="609.2300000000001" as="targetPoint" />
            <Array as="points">
              <mxPoint x="1130" y="804" />
              <mxPoint x="1130" y="660" />
              <mxPoint x="919" y="660" />
            </Array>
          </mxGeometry>
        </mxCell>
      </root>
    </mxGraphModel>
  </diagram>
</mxfile>
